<svg width="70" height="70" viewBox="0 0 70 70" fill="none" xmlns="http://www.w3.org/2000/svg">
<g clip-path="url(#clip0_6_115)">
<path d="M58.3333 17.5H5.83333V5.83337H58.3333V17.5ZM48.125 35H43.75V49.5834L54.2792 55.8834L56.4667 52.325L48.125 47.3959V35ZM67.0833 46.6667C67.0833 57.9542 57.9542 67.0834 46.6667 67.0834C39.725 67.0834 33.6292 63.6125 29.925 58.3334H8.75V20.4167H55.4167V28.2334C62.3 31.5292 67.0833 38.5292 67.0833 46.6667ZM23.3333 35H29.925C31.5875 32.6375 33.7167 30.625 36.1958 29.1667H24.7917C23.975 29.1667 23.3333 29.8084 23.3333 30.625V35ZM61.25 46.6667C61.25 38.6167 54.7167 32.0834 46.6667 32.0834C38.6167 32.0834 32.0833 38.6167 32.0833 46.6667C32.0833 54.7167 38.6167 61.25 46.6667 61.25C54.7167 61.25 61.25 54.7167 61.25 46.6667Z" fill="#007CC2"/>
</g>
<defs>
<clipPath id="clip0_6_115">
<rect width="70" height="70" fill="white"/>
</clipPath>
</defs>
</svg>
