<svg width="70" height="70" viewBox="0 0 70 70" fill="none" xmlns="http://www.w3.org/2000/svg">
<path d="M55.4167 37.9167C56.4083 37.9167 57.3708 38.0333 58.3333 38.1792V23.3333H11.6667V61.25H38.9375C38.2958 59.4125 37.9167 57.4583 37.9167 55.4167C37.9167 45.7625 45.7625 37.9167 55.4167 37.9167ZM26.25 37.9167V33.5417C26.25 32.725 26.8917 32.0833 27.7083 32.0833H42.2917C43.1083 32.0833 43.75 32.725 43.75 33.5417V37.9167H26.25ZM61.25 20.4167H8.75V8.75H61.25V20.4167ZM65.625 50.3125L51.7708 64.1667L43.75 55.4167L47.1333 52.0333L51.7708 56.6708L62.2417 46.2L65.625 50.3125Z" fill="#007CC2"/>
</svg>
