<svg width="70" height="70" viewBox="0 0 70 70" fill="none" xmlns="http://www.w3.org/2000/svg">
<path d="M61.25 20.4167H8.75V8.75H61.25V20.4167ZM37.9167 55.4167C37.9167 57.4583 38.2958 59.4125 38.9375 61.25H11.6667V23.3333H58.3333V38.1792C57.3708 38.0333 56.4083 37.9167 55.4167 37.9167C45.7625 37.9167 37.9167 45.7625 37.9167 55.4167ZM43.75 37.9167V33.5417C43.75 32.725 43.1083 32.0833 42.2917 32.0833H27.7083C26.8917 32.0833 26.25 32.725 26.25 33.5417V37.9167H43.75ZM58.3333 52.5V43.75H52.5V52.5H43.75V58.3333H52.5V67.0833H58.3333V58.3333H67.0833V52.5H58.3333Z" fill="#007CC2"/>
</svg>
