<svg width="70" height="70" viewBox="0 0 70 70" fill="none" xmlns="http://www.w3.org/2000/svg">
<path d="M51.7854 40.8333C54.0604 40.8333 56.0642 41.9912 57.2396 43.75H39.375C37.4411 43.75 35.5865 44.5182 34.219 45.8857C32.8516 47.2531 32.0833 49.1078 32.0833 51.0417V62.7083C32.0833 63.1808 32.1271 63.6397 32.2146 64.085C23.6425 63.5425 17.2346 60.4392 13.1688 54.7312C12.1998 53.3724 11.6788 51.7452 11.6783 50.0762V47.3929C11.6791 45.6534 12.3705 43.9854 13.6005 42.7554C14.8304 41.5254 16.4985 40.8341 18.2379 40.8333H51.7854ZM35 5.84792C36.9151 5.84792 38.8115 6.22512 40.5808 6.95801C42.3501 7.69089 43.9578 8.76509 45.312 10.1193C46.6662 11.4735 47.7404 13.0811 48.4733 14.8504C49.2061 16.6198 49.5833 18.5161 49.5833 20.4312C49.5833 22.3464 49.2061 24.2427 48.4733 26.012C47.7404 27.7814 46.6662 29.389 45.312 30.7432C43.9578 32.0974 42.3501 33.1716 40.5808 33.9045C38.8115 34.6374 36.9151 35.0146 35 35.0146C31.1323 35.0146 27.4229 33.4781 24.688 30.7432C21.9531 28.0083 20.4167 24.299 20.4167 20.4312C20.4167 16.5635 21.9531 12.8542 24.688 10.1193C27.4229 7.38437 31.1323 5.84792 35 5.84792ZM35 51.0417C35 49.8813 35.4609 48.7685 36.2814 47.9481C37.1019 47.1276 38.2147 46.6667 39.375 46.6667H62.7083C63.8687 46.6667 64.9815 47.1276 65.8019 47.9481C66.6224 48.7685 67.0833 49.8813 67.0833 51.0417V62.7083C67.0833 63.8686 66.6224 64.9814 65.8019 65.8019C64.9815 66.6224 63.8687 67.0833 62.7083 67.0833H39.375C38.2147 67.0833 37.1019 66.6224 36.2814 65.8019C35.4609 64.9814 35 63.8686 35 62.7083V51.0417ZM64.1667 52.5C63.3931 52.5 62.6513 52.1927 62.1043 51.6457C61.5573 51.0987 61.25 50.3569 61.25 49.5833H58.3333C58.3333 51.1304 58.9479 52.6142 60.0419 53.7081C61.1359 54.8021 62.6196 55.4167 64.1667 55.4167V52.5ZM64.1667 58.3333C62.6196 58.3333 61.1359 58.9479 60.0419 60.0419C58.9479 61.1358 58.3333 62.6196 58.3333 64.1667H61.25C61.25 63.3931 61.5573 62.6512 62.1043 62.1043C62.6513 61.5573 63.3931 61.25 64.1667 61.25V58.3333ZM40.8333 49.5833C40.8333 50.3569 40.5261 51.0987 39.9791 51.6457C39.4321 52.1927 38.6902 52.5 37.9167 52.5V55.4167C39.4638 55.4167 40.9475 54.8021 42.0415 53.7081C43.1354 52.6142 43.75 51.1304 43.75 49.5833H40.8333ZM43.75 64.1667C43.75 62.6196 43.1354 61.1358 42.0415 60.0419C40.9475 58.9479 39.4638 58.3333 37.9167 58.3333V61.25C38.6902 61.25 39.4321 61.5573 39.9791 62.1043C40.5261 62.6512 40.8333 63.3931 40.8333 64.1667H43.75ZM56.1458 56.875C56.1458 55.5213 55.6081 54.223 54.6509 53.2658C53.6937 52.3086 52.3954 51.7708 51.0417 51.7708C49.688 51.7708 48.3897 52.3086 47.4325 53.2658C46.4753 54.223 45.9375 55.5213 45.9375 56.875C45.9375 58.2287 46.4753 59.527 47.4325 60.4842C48.3897 61.4414 49.688 61.9792 51.0417 61.9792C52.3954 61.9792 53.6937 61.4414 54.6509 60.4842C55.6081 59.527 56.1458 58.2287 56.1458 56.875Z" fill="#007CC2"/>
</svg>
