<svg width="29" height="29" viewBox="0 0 29 29" fill="none" xmlns="http://www.w3.org/2000/svg">
<path d="M14.5 10.875C13.5386 10.875 12.6166 11.2569 11.9367 11.9367C11.2569 12.6166 10.875 13.5386 10.875 14.5C10.875 15.4614 11.2569 16.3834 11.9367 17.0633C12.6166 17.7431 13.5386 18.125 14.5 18.125C15.4614 18.125 16.3834 17.7431 17.0633 17.0633C17.7431 16.3834 18.125 15.4614 18.125 14.5C18.125 13.5386 17.7431 12.6166 17.0633 11.9367C16.3834 11.2569 15.4614 10.875 14.5 10.875ZM14.5 20.5417C12.8977 20.5417 11.3609 19.9051 10.2279 18.7721C9.09487 17.6391 8.45834 16.1024 8.45834 14.5C8.45834 12.8977 9.09487 11.3609 10.2279 10.2279C11.3609 9.09486 12.8977 8.45833 14.5 8.45833C16.1024 8.45833 17.6391 9.09486 18.7721 10.2279C19.9051 11.3609 20.5417 12.8977 20.5417 14.5C20.5417 16.1024 19.9051 17.6391 18.7721 18.7721C17.6391 19.9051 16.1024 20.5417 14.5 20.5417ZM14.5 5.4375C8.45834 5.4375 3.29875 9.19542 1.20834 14.5C3.29875 19.8046 8.45834 23.5625 14.5 23.5625C20.5417 23.5625 25.7013 19.8046 27.7917 14.5C25.7013 9.19542 20.5417 5.4375 14.5 5.4375Z" fill="#007CC2"/>
</svg>
