<svg width="16" height="16" viewBox="0 0 16 16" fill="none" xmlns="http://www.w3.org/2000/svg">
<path d="M7.33331 11.3333H8.66665V7.33325H7.33331V11.3333ZM7.99998 5.99992C8.18887 5.99992 8.34731 5.93592 8.47531 5.80792C8.60331 5.67992 8.66709 5.5217 8.66665 5.33325C8.6662 5.14481 8.6022 4.98659 8.47465 4.85859C8.34709 4.73059 8.18887 4.66658 7.99998 4.66658C7.81109 4.66658 7.65287 4.73059 7.52531 4.85859C7.39776 4.98659 7.33376 5.14481 7.33331 5.33325C7.33287 5.5217 7.39687 5.68014 7.52531 5.80859C7.65376 5.93703 7.81198 6.00081 7.99998 5.99992ZM7.99998 14.6666C7.07776 14.6666 6.21109 14.4915 5.39998 14.1413C4.58887 13.791 3.88331 13.3161 3.28331 12.7166C2.68331 12.117 2.20843 11.4115 1.85865 10.5999C1.50887 9.78836 1.33376 8.9217 1.33331 7.99992C1.33287 7.07814 1.50798 6.21147 1.85865 5.39992C2.20931 4.58836 2.6842 3.88281 3.28331 3.28325C3.88243 2.6837 4.58798 2.20881 5.39998 1.85859C6.21198 1.50836 7.07865 1.33325 7.99998 1.33325C8.92131 1.33325 9.78798 1.50836 10.6 1.85859C11.412 2.20881 12.1175 2.6837 12.7166 3.28325C13.3158 3.88281 13.7909 4.58836 14.142 5.39992C14.4931 6.21147 14.668 7.07814 14.6666 7.99992C14.6653 8.9217 14.4902 9.78836 14.1413 10.5999C13.7924 11.4115 13.3175 12.117 12.7166 12.7166C12.1158 13.3161 11.4102 13.7913 10.6 14.1419C9.78976 14.4926 8.92309 14.6675 7.99998 14.6666ZM7.99998 13.3333C9.48887 13.3333 10.75 12.8166 11.7833 11.7833C12.8166 10.7499 13.3333 9.48881 13.3333 7.99992C13.3333 6.51103 12.8166 5.24992 11.7833 4.21658C10.75 3.18325 9.48887 2.66659 7.99998 2.66659C6.51109 2.66659 5.24998 3.18325 4.21665 4.21658C3.18331 5.24992 2.66665 6.51103 2.66665 7.99992C2.66665 9.48881 3.18331 10.7499 4.21665 11.7833C5.24998 12.8166 6.51109 13.3333 7.99998 13.3333Z" fill="#007CC2"/>
</svg>
