<svg width="70" height="70" viewBox="0 0 70 70" fill="none" xmlns="http://www.w3.org/2000/svg">
<path d="M40.2495 7.12674C37.7962 7.13576 35.3581 7.37748 33.0189 7.77561C21.1617 9.79357 14.4782 15.0855 10.8719 22.5172C15.1396 22.1844 19.3487 21.8303 23.4454 21.8557C26.7422 21.8762 29.9663 22.1424 33.0895 22.8633C35.1608 23.3419 36.4599 25.1393 36.8639 27.2021C37.2679 29.2649 36.9812 31.7029 36.1728 34.2504L36.1335 34.374L36.0696 34.4869C35.0083 36.3517 32.7523 37.8362 29.8769 39.4079C27.0014 40.9798 23.4928 42.5105 19.9962 43.8415C16.4996 45.1724 13.0219 46.2997 10.2106 47.0457C9.21881 47.3089 8.31702 47.5215 7.51243 47.6824C7.82346 51.9385 8.40957 56.3477 9.15414 60.8047C28.3109 55.5752 46.5467 49.8825 64.3215 43.9536C67.8673 37.8755 68.4131 32.1345 66.6412 26.6267C63.5797 17.1104 58.3151 11.9912 52.2564 9.37713C48.4698 7.74334 44.3386 7.1117 40.2497 7.12674H40.2495ZM17.7986 24.5007C16.5599 24.5704 15.3014 24.6587 14.0345 24.7517L8.10879 45.0332C8.57145 44.9252 9.05708 44.8059 9.57907 44.6674C10.158 44.5126 10.735 44.3506 11.3099 44.1815C12.6801 39.9336 17.2298 26.2145 17.7986 24.5007ZM11.4138 24.9467C9.92797 25.0596 8.43008 25.1728 6.91469 25.2707C6.87094 25.3315 6.81707 25.4002 6.7345 25.5806C6.51848 26.0523 6.27307 26.8682 6.06293 27.8671C5.64252 29.8648 5.32875 32.6149 5.14623 35.3698C4.96399 38.1247 4.90971 40.8985 4.98313 42.9689C5.01977 44.0042 5.09114 44.87 5.18028 45.4244C5.18684 45.4662 5.19094 45.467 5.19805 45.5051C5.26094 45.5037 5.33928 45.499 5.40942 45.4963L11.4138 24.9467ZM30.625 25.0195C28.4927 25.0195 26.7066 26.7397 26.7066 28.8684C26.7066 30.9971 28.4927 32.7178 30.625 32.7178C32.7573 32.7178 34.5434 30.9973 34.5434 28.8684C34.5434 26.7397 32.7573 25.0195 30.625 25.0195ZM30.625 27.4805C31.4617 27.4805 32.0824 28.1049 32.0824 28.8684C32.0824 29.6321 31.4617 30.2568 30.625 30.2568C29.7883 30.2568 29.1676 29.632 29.1676 28.8684C29.1676 28.1049 29.7883 27.4805 30.625 27.4805ZM62.0963 47.2862C45.1696 52.8899 27.7929 58.2736 9.5777 63.2406C9.63416 63.5574 9.68844 63.8736 9.74614 64.1905C29.9268 60.547 44.7426 54.7617 60.518 49.2658C61.0639 48.6218 61.5903 47.9616 62.0966 47.2861L62.0963 47.2862Z" fill="#007CC2"/>
</svg>
