<svg width="70" height="70" viewBox="0 0 70 70" fill="none" xmlns="http://www.w3.org/2000/svg">
<g clip-path="url(#clip0_6_124)">
<path d="M35 38.1413C37.4461 38.1413 39.516 37.2945 41.2096 35.6009C42.9032 33.9073 43.75 31.8374 43.75 29.3913C43.75 26.9452 42.9032 24.8754 41.2096 23.1817C39.516 21.4881 37.4461 20.6413 35 20.6413C32.5539 20.6413 30.484 21.4881 28.7904 23.1817C27.0968 24.8754 26.25 26.9452 26.25 29.3913C26.25 31.8374 27.0968 33.9073 28.7904 35.6009C30.484 37.2945 32.5539 38.1413 35 38.1413ZM16.38 58.3334C15.0364 58.3334 13.9154 57.8843 13.0171 56.9859C12.1188 56.0876 11.6686 54.9656 11.6667 53.6201V16.3801C11.6667 15.0365 12.1168 13.9155 13.0171 13.0172C13.9174 12.1188 15.0383 11.6687 16.38 11.6667H53.6229C54.9646 11.6667 56.0856 12.1169 56.9858 13.0172C57.8861 13.9174 58.3353 15.0384 58.3333 16.3801V53.623C58.3333 54.9647 57.8842 56.0856 56.9858 56.9859C56.0875 57.8862 54.9656 58.3354 53.62 58.3334H16.38ZM15.8171 55.4167H54.1829C54.5951 55.1581 54.8761 54.814 55.0258 54.3843C55.1756 53.9545 55.3058 53.554 55.4167 53.1826C52.7917 50.6062 49.7418 48.5772 46.2671 47.0955C42.7924 45.6138 39.0367 44.873 35 44.873C30.9633 44.873 27.2076 45.6138 23.7329 47.0955C20.2582 48.5772 17.2083 50.6072 14.5833 53.1855C14.6961 53.5549 14.8264 53.9545 14.9742 54.3843C15.1219 54.814 15.4029 55.1581 15.8171 55.4167Z" fill="#007CC2"/>
</g>
<defs>
<clipPath id="clip0_6_124">
<rect width="70" height="70" fill="white"/>
</clipPath>
</defs>
</svg>
